<svg width="1280" height="640" viewBox="0 0 1280 640" fill="none" xmlns="http://www.w3.org/2000/svg">
  <rect width="1280" height="640" fill="#F4D15B"/>
  <path d="M0 0h1280v640H0z" fill="url(#bg)"/>
  <circle cx="1030" cy="142" r="190" fill="#2A7289" fill-opacity=".18"/>
  <circle cx="196" cy="512" r="210" fill="#FF8B2B" fill-opacity=".2"/>
  <g filter="url(#soft)">
    <rect x="770" y="78" width="300" height="392" rx="28" fill="#F8FAFC"/>
    <rect x="805" y="118" width="230" height="154" rx="18" fill="#263241"/>
    <rect x="828" y="142" width="184" height="106" rx="14" fill="#D5F2FF"/>
    <path d="M865 204c44-70 94-70 138 0" stroke="#1E6D87" stroke-width="16" stroke-linecap="round"/>
    <rect x="842" y="318" width="156" height="30" rx="15" fill="#F3A51D"/>
    <rect x="835" y="370" width="172" height="42" rx="21" fill="#E7EDF2"/>
    <circle cx="884" cy="391" r="13" fill="#1D2733"/>
    <circle cx="958" cy="391" r="13" fill="#1D2733"/>
  </g>
  <g filter="url(#soft)">
    <rect x="492" y="108" width="260" height="324" rx="36" fill="#283444"/>
    <rect x="523" y="143" width="198" height="258" rx="26" fill="#0E1722"/>
    <rect x="542" y="167" width="160" height="178" rx="18" fill="url(#phone)"/>
    <circle cx="622" cy="371" r="13" fill="#F8FAFC"/>
  </g>
  <g filter="url(#soft)">
    <path d="M300 365c0-112 66-200 151-200s151 88 151 200" stroke="#162536" stroke-width="34" stroke-linecap="round"/>
    <rect x="260" y="330" width="88" height="142" rx="32" fill="#172234"/>
    <rect x="555" y="330" width="88" height="142" rx="32" fill="#172234"/>
    <rect x="289" y="354" width="30" height="94" rx="15" fill="#F59F19"/>
    <rect x="584" y="354" width="30" height="94" rx="15" fill="#F59F19"/>
  </g>
  <g filter="url(#soft)">
    <rect x="238" y="452" width="302" height="92" rx="18" fill="#F8FAFC"/>
    <path d="M282 489h186" stroke="#1E293B" stroke-width="14" stroke-linecap="round"/>
    <path d="M282 516h132" stroke="#F59F19" stroke-width="12" stroke-linecap="round"/>
    <circle cx="486" cy="512" r="18" fill="#1E6D87"/>
  </g>
  <g filter="url(#soft)">
    <rect x="900" y="440" width="214" height="96" rx="16" fill="#B77534"/>
    <path d="M900 472h214" stroke="#845126" stroke-width="4"/>
    <path d="M944 440v96" stroke="#845126" stroke-width="4"/>
    <path d="M986 484l42 0" stroke="#F7D793" stroke-width="8" stroke-linecap="round"/>
  </g>
  <g filter="url(#soft)">
    <rect x="120" y="156" width="170" height="258" rx="84" fill="#F8FAFC"/>
    <rect x="148" y="184" width="114" height="206" rx="57" fill="#E8EEF4"/>
    <circle cx="205" cy="283" r="46" fill="#1E6D87"/>
    <circle cx="205" cy="283" r="26" fill="#F59F19"/>
  </g>
  <defs>
    <linearGradient id="bg" x1="74" x2="1204" y1="85" y2="612" gradientUnits="userSpaceOnUse">
      <stop stop-color="#FEE58A"/>
      <stop offset=".52" stop-color="#F6C946"/>
      <stop offset="1" stop-color="#F59F19"/>
    </linearGradient>
    <linearGradient id="phone" x1="542" x2="702" y1="167" y2="345" gradientUnits="userSpaceOnUse">
      <stop stop-color="#BFEFFF"/>
      <stop offset=".55" stop-color="#5BA7B8"/>
      <stop offset="1" stop-color="#203547"/>
    </linearGradient>
    <filter id="soft" x="80" y="45" width="1080" height="535" filterUnits="userSpaceOnUse" color-interpolation-filters="sRGB">
      <feDropShadow dx="0" dy="20" stdDeviation="24" flood-color="#253342" flood-opacity=".22"/>
    </filter>
  </defs>
</svg>
