<svg width="1200" height="800" viewBox="0 0 1200 800" fill="none" xmlns="http://www.w3.org/2000/svg">
  <rect width="1200" height="800" fill="#E3E6E6"/>
  <rect width="1200" height="80" fill="#131E29"/>
  <rect x="42" y="22" width="160" height="36" rx="18" fill="#F7A928"/>
  <rect x="260" y="18" width="560" height="44" rx="8" fill="#FFFFFF"/>
  <rect x="820" y="18" width="68" height="44" rx="8" fill="#F7A928"/>
  <rect y="80" width="1200" height="48" fill="#253447"/>
  <rect x="56" y="162" width="1088" height="250" rx="8" fill="#F2C94C"/>
  <path d="M102 210h338" stroke="#1E293B" stroke-width="34" stroke-linecap="round"/>
  <path d="M102 266h254" stroke="#1E293B" stroke-width="24" stroke-linecap="round"/>
  <rect x="706" y="150" width="304" height="276" rx="26" fill="#F8FAFC"/>
  <rect x="746" y="188" width="224" height="142" rx="18" fill="#253447"/>
  <circle cx="806" cy="482" r="128" fill="#FFFFFF"/>
  <circle cx="396" cy="540" r="128" fill="#FFFFFF"/>
  <circle cx="996" cy="558" r="128" fill="#FFFFFF"/>
  <g>
    <rect x="72" y="458" width="236" height="238" rx="8" fill="#FFFFFF"/>
    <rect x="104" y="496" width="172" height="108" rx="14" fill="#E8EEF4"/>
    <rect x="340" y="458" width="236" height="238" rx="8" fill="#FFFFFF"/>
    <rect x="374" y="498" width="166" height="96" rx="48" fill="#172234"/>
    <rect x="608" y="458" width="236" height="238" rx="8" fill="#FFFFFF"/>
    <path d="M658 536h136" stroke="#F7A928" stroke-width="24" stroke-linecap="round"/>
    <path d="M658 588h96" stroke="#1E6D87" stroke-width="20" stroke-linecap="round"/>
    <rect x="876" y="458" width="236" height="238" rx="8" fill="#FFFFFF"/>
    <rect x="930" y="500" width="128" height="150" rx="20" fill="#1E6D87"/>
  </g>
</svg>
