<svg width="98" height="42" viewBox="0 0 98 42" fill="none" xmlns="http://www.w3.org/2000/svg">
<g clip-path="url(#clip0_1_95)">
<path d="M48.203 17.6719C47.6136 16.2647 46.4379 14.0505 45.0299 12.8326L45.1543 14.6273L45.0916 14.6093C45.0673 14.6023 45.0452 14.5959 45.0261 14.5894L44.988 14.5636L44.8914 14.5234C44.1856 14.2284 43.4643 14.0789 42.7477 14.0789C42.031 14.0789 41.3097 14.2284 40.6039 14.5234C39.1855 15.1172 38.1665 16.1368 37.574 17.5537C37.3127 18.2021 37.0778 18.7822 36.8703 19.2926C36.5701 18.5649 36.3258 17.9752 36.1378 17.5235C35.671 16.4341 34.9395 15.5724 33.9592 14.9526L33.9452 14.9439L33.9311 14.9356C32.9829 14.3768 31.9684 14.0936 30.9159 14.0936C30.8792 14.0936 30.8422 14.094 30.8053 14.0946C30.7684 14.094 30.7314 14.0936 30.6947 14.0936C29.6389 14.0936 28.6317 14.3789 27.7009 14.9418C26.7036 15.5712 25.9719 16.433 25.5088 17.5138C25.2396 18.1814 24.9991 18.7758 24.7873 19.2963C24.4807 18.5787 24.23 17.9854 24.0376 17.5237C23.4412 16.1252 22.4356 15.1196 21.0452 14.5265L21.0311 14.5205L21.017 14.5149C20.3071 14.2362 19.5929 14.0948 18.8943 14.0948C18.1749 14.0948 17.4501 14.2362 16.7402 14.5149L16.7252 14.5207L16.7103 14.5271C16.6045 14.5723 16.5281 14.605 16.4801 14.6213L16.4348 14.6368L16.3814 14.6594C14.9978 15.2745 13.9972 16.2887 13.4071 17.6736C13.0997 18.3914 12.9436 19.1154 12.9436 19.8242C12.9436 20.5234 13.0852 21.2379 13.3645 21.9476C15.8814 27.9817 15.5514 30.5613 17.0884 33.2271C17.7178 34.3186 20.0972 37.2377 21.1561 37.9213C22.1907 38.6248 23.3538 38.9813 24.613 38.9813H24.9289C26.193 38.9813 27.3603 38.6219 28.3985 37.9129C29.4171 37.2423 30.1954 36.3117 30.6976 35.1568C30.7415 35.0508 30.7415 35.0508 30.7415 35.0508L30.686 34.9471C31.166 36.1096 32.1982 37.2373 33.257 37.9211C34.2911 38.6244 35.4542 38.9811 36.714 38.9811H37.0299C38.2941 38.9811 39.4615 38.6217 40.4992 37.9128C41.5169 37.2433 42.2954 36.3127 42.7985 35.1572C45.2081 29.332 47.0466 24.9003 48.2709 21.9676L48.2794 21.9471L48.2871 21.9264C48.5401 21.2405 48.6682 20.554 48.6676 19.8864C48.667 19.1367 48.5109 18.3914 48.203 17.6719Z" fill="#3B49F4"/>
<path d="M46.6226 15.5648C46.0333 14.1576 44.8576 11.9434 43.4496 10.7256L43.574 12.5202L43.5113 12.5022C43.4869 12.4953 43.4649 12.4889 43.4457 12.4823L43.4076 12.4566L43.3111 12.4164C42.6053 12.1214 41.884 11.9719 41.1673 11.9719C40.4507 11.9719 39.7294 12.1214 39.0236 12.4164C37.6051 13.0102 36.5861 14.0298 35.9937 15.4466C35.7323 16.095 35.4975 16.6751 35.29 17.1856C34.9898 16.4579 34.7455 15.8681 34.5575 15.4165C34.0907 14.3271 33.3592 13.4653 32.3789 12.8456L32.3649 12.8369L32.3508 12.8284C31.4026 12.2695 30.3881 11.9864 29.3356 11.9864C29.2989 11.9864 29.2619 11.9867 29.225 11.9873C29.188 11.9867 29.1511 11.9864 29.1143 11.9864C28.0586 11.9864 27.0514 12.2717 26.1206 12.8346C25.1233 13.464 24.3916 14.3257 23.9285 15.4066C23.6592 16.0741 23.4188 16.6685 23.207 17.189C22.9004 16.4714 22.6497 15.8782 22.4573 15.4165C21.8609 14.018 20.8553 13.0123 19.4649 12.4193L19.4508 12.4133L19.4367 12.4077C18.7268 12.1289 18.0126 11.9875 17.314 11.9875C16.5946 11.9875 15.8698 12.1289 15.1599 12.4077L15.1448 12.4135L15.1299 12.4198C15.0241 12.4651 14.9477 12.4978 14.8998 12.514L14.8545 12.5295L14.8011 12.5521C13.4175 13.1672 12.4169 14.1814 11.8267 15.5664C11.5194 16.2842 11.3633 17.0084 11.3633 17.7169C11.3633 18.4162 11.5049 19.1307 11.7842 19.8404C14.3011 25.8744 13.9711 28.454 15.5081 31.1199C16.1375 32.2114 18.5169 35.1304 19.5757 35.814C20.6104 36.5175 21.7735 36.874 23.0327 36.874H23.3486C24.6126 36.874 25.78 36.5146 26.8181 35.8057C27.8367 35.1351 28.6151 34.2045 29.1172 33.0495C29.1611 32.9435 29.1611 32.9435 29.1611 32.9435L29.1056 32.8398C29.5857 34.0023 30.6179 35.13 31.6767 35.8138C32.7108 36.5171 33.8739 36.8738 35.1337 36.8738H35.4495C36.7138 36.8738 37.8812 36.5144 38.9189 35.8055C39.9365 35.136 40.7153 34.2055 41.2182 33.0499C43.6278 27.2248 45.4663 22.7931 46.6905 19.8603L46.699 19.8398L46.7068 19.8191C46.9598 19.1332 47.0878 18.4467 47.0873 17.7792C47.0867 17.0297 46.9306 16.2844 46.6226 15.5648Z" fill="#00D800"/>
<path d="M45.0423 13.4578C44.4529 12.0506 43.2773 9.83636 41.8693 8.61853L41.9937 10.4132L41.931 10.3952C41.9066 10.3882 41.8846 10.3818 41.8654 10.3753L41.8273 10.3495L41.7308 10.3093C41.025 10.0143 40.3037 9.8648 39.587 9.8648C38.8704 9.8648 38.1491 10.0143 37.4432 10.3093C36.0248 10.9031 35.0058 11.9227 34.4133 13.3396C34.152 13.9879 33.9172 14.568 33.7096 15.0785C33.4094 14.3508 33.1651 13.7611 32.9771 13.3094C32.5104 12.22 31.7788 11.3583 30.7985 10.7385L30.7846 10.7298L30.7705 10.7215C29.8223 10.1627 28.8077 9.8795 27.7553 9.8795C27.7185 9.8795 27.6816 9.87989 27.6447 9.88047C27.6077 9.87989 27.5708 9.8795 27.534 9.8795C26.4783 9.8795 25.4711 10.1648 24.5403 10.7277C23.543 11.3571 22.8112 12.2188 22.3482 13.2997C22.0789 13.9673 21.8385 14.5617 21.6267 15.0822C21.3201 14.3646 21.0694 13.7713 20.8769 13.3096C20.2806 11.9111 19.2749 10.9055 17.8846 10.3124L17.8705 10.3064L17.8563 10.3008C17.1464 10.0221 16.4323 9.88066 15.7336 9.88066C15.0143 9.88066 14.2895 10.0221 13.5796 10.3008L13.5645 10.3066L13.5496 10.313C13.4438 10.3582 13.3674 10.3909 13.3194 10.4072L13.2742 10.4227L13.2208 10.4453C11.8372 11.0604 10.8366 12.0745 10.2464 13.4595C9.93906 14.1773 9.78296 14.9015 9.78296 15.6101C9.78296 16.3093 9.92455 17.0238 10.2039 17.7335C12.7208 23.7676 12.3908 26.3471 13.9278 29.013C14.5572 30.1045 16.9366 33.0236 17.9954 33.7072C19.0301 34.4107 20.1932 34.7671 21.4524 34.7671H21.7683C23.0323 34.7671 24.1997 34.4078 25.2378 33.6988C26.2564 33.0282 27.0348 32.0976 27.5369 30.9427C27.5808 30.8367 27.5808 30.8367 27.5808 30.8367L27.5253 30.733C28.0054 31.8955 29.0375 33.0232 30.0964 33.707C31.1305 34.4103 32.2935 34.767 33.5534 34.767H33.8692C35.1335 34.767 36.3008 34.4076 37.3386 33.6986C38.3562 33.0292 39.1348 32.0986 39.6379 30.943C42.0474 25.1179 43.886 20.6862 45.1102 17.7534L45.1187 17.7329L45.1265 17.7122C45.3795 17.0263 45.5075 16.3399 45.5069 15.6723C45.5065 14.9226 45.3503 14.1773 45.0423 13.4578Z" fill="#F6CC06"/>
<path d="M43.4623 11.3508C42.8729 9.94362 41.6972 7.72943 40.2893 6.5116L40.4136 8.30624L40.351 8.28825C40.3266 8.28129 40.3045 8.2749 40.2854 8.26833L40.2473 8.2426L40.1508 8.20237C39.4449 7.90739 38.7236 7.75786 38.007 7.75786C37.2903 7.75786 36.569 7.90739 35.8632 8.20237C34.4448 8.7962 33.4258 9.81576 32.8333 11.2326C32.572 11.881 32.3372 12.4611 32.1296 12.9716C31.8294 12.2439 31.5851 11.6541 31.3971 11.2025C30.9304 10.1131 30.1988 9.25134 29.2185 8.63159L28.8371 9.29699L28.6599 8.89504C27.7117 8.33622 27.2277 7.77237 26.1753 7.77237C26.1385 7.77237 26.1016 7.77276 26.0646 7.77334C26.0277 7.77276 25.9907 7.77237 25.954 7.77237C24.8982 7.77237 23.8911 8.05768 22.9603 8.62056C21.963 9.24998 21.2312 10.1117 20.7681 11.1926C20.4989 11.8601 20.2584 12.4545 20.0466 12.9751C19.7401 12.2574 19.4894 11.6642 19.2969 11.2025C18.7006 9.80397 17.7814 9.53471 16.3912 8.94185L16.2906 8.19947L16.2765 8.19386C15.5666 7.91512 14.8525 7.77373 14.1538 7.77373C13.4344 7.77373 12.7097 7.91512 11.9998 8.19386L11.9847 8.19966L11.9698 8.20604C11.864 8.2513 11.7876 8.28399 11.7396 8.30024L11.6943 8.31572L11.641 8.33835C10.2574 8.95345 9.25674 9.96761 8.66658 11.3526C8.35922 12.0704 8.20312 12.7944 8.20312 13.5031C8.20312 14.2024 8.34472 14.9169 8.62403 15.6266C11.1409 21.6606 10.8109 24.2402 12.3479 26.9061C12.9774 27.9976 15.3567 30.9166 16.4156 31.6002C17.4502 32.3037 18.6133 32.6602 19.8726 32.6602H20.1884C21.4525 32.6602 22.6198 32.3008 23.658 31.5919C24.6766 30.9213 25.4549 29.9907 25.9571 28.8357C26.001 28.7297 26.001 28.7297 26.001 28.7297L25.9455 28.626C26.4256 29.7886 27.4577 30.9162 28.5165 31.6C29.5506 32.3033 30.7137 32.66 31.9735 32.66H32.2894C33.5537 32.66 34.721 32.3006 35.7588 31.5917C36.7764 30.9222 37.5551 29.9917 38.0581 28.8361C40.4676 23.011 42.3062 18.5793 43.5304 15.6465L43.5389 15.626L43.5466 15.6053C43.7996 14.9194 43.9277 14.2329 43.9271 13.5654C43.9263 12.8157 43.7702 12.0704 43.4623 11.3508Z" fill="#F98F00"/>
<path d="M41.8819 9.24363C41.2925 7.83642 40.3207 6.23018 38.9408 5.16748L38.8332 6.19885L38.7705 6.18086C38.7462 6.1739 38.7241 6.16751 38.705 6.16094L38.6669 6.13521L38.5703 6.09498C37.8645 5.8 37.1432 5.65047 36.4266 5.65047C35.7099 5.65047 34.9886 5.8 34.2828 6.09498C32.8644 6.68881 31.8454 7.70837 31.2529 9.12525C30.9916 9.77362 30.7567 10.3537 30.5492 10.8642C30.249 10.1365 28.8476 9.34634 28.6596 8.89468C28.1928 7.80528 28.6184 7.14395 27.6381 6.5242L27.6242 6.51549L27.61 6.50718C26.6618 5.94836 25.6473 5.66518 24.5948 5.66518C24.5581 5.66518 24.5211 5.66556 24.4842 5.66614C24.4473 5.66556 24.4103 5.66518 24.3736 5.66518C23.3178 5.66518 22.3106 5.95048 21.3798 6.51336C20.3825 7.14279 19.6508 8.00452 19.1877 9.0854C18.9185 9.75293 18.678 10.3473 18.4662 10.8679C18.1596 10.1502 16.7981 9.54035 16.6058 9.07863C16.0095 7.68013 16.1145 6.69113 14.7243 6.09807L14.7102 6.09207L14.6961 6.08647C13.9862 5.80773 13.272 5.66634 12.5734 5.66634C11.854 5.66634 11.1292 5.80773 10.4193 6.08647L10.4043 6.09227L10.3894 6.09865C10.2836 6.14391 10.2071 6.1766 10.1592 6.19285L10.1139 6.20833L10.0605 6.23096C8.67693 6.84606 7.67631 7.86022 7.08616 9.24517C6.77841 9.96319 6.62231 10.6872 6.62231 11.3959C6.62231 12.0952 6.76391 12.8097 7.04322 13.5194C9.56013 19.5534 9.98567 22.1897 11.1528 25.0368C11.6339 26.2018 13.7757 28.8092 14.8346 29.493C15.8692 30.1965 17.0323 30.553 18.2915 30.553H18.6074C19.8715 30.553 21.0388 30.1936 22.077 29.4847C23.0956 28.8141 23.8739 27.8835 24.3761 26.7285C24.42 26.6225 24.42 26.6225 24.42 26.6225L24.3645 26.5188C24.8446 27.6814 25.8767 28.809 26.9355 29.4928C27.9696 30.1961 29.1327 30.5528 30.3925 30.5528H30.7084C31.9726 30.5528 33.14 30.1934 34.1777 29.4845C35.1954 28.815 35.9739 27.8845 36.477 26.7289C38.8866 20.9038 40.7251 16.4721 41.9494 13.5393L41.9579 13.5188L41.9656 13.4981C42.2186 12.8122 42.3467 12.1257 42.3461 11.4582C42.3459 10.7085 42.1898 9.96319 41.8819 9.24363Z" fill="#FB0100"/>
<path d="M28.8125 27.9196C27.6554 27.9196 26.5881 27.591 25.6401 26.9428C24.6799 26.3261 23.9634 25.4688 23.523 24.4031C23.383 24.0363 23.1831 23.5436 22.9243 22.9272C22.7686 23.3096 22.5677 23.7978 22.3164 24.4036C21.8522 25.4716 21.1388 26.325 20.1925 26.9478C19.2509 27.5908 18.1836 27.9194 17.0272 27.9194H16.7114C15.5549 27.9194 14.4875 27.5908 13.5391 26.9428C12.5787 26.3261 11.8623 25.4687 11.4218 24.4029C10.2584 21.5637 8.47088 17.2552 5.95725 11.2295C5.69825 10.5717 5.56885 9.92212 5.56885 9.28903C5.56885 8.65206 5.71063 7.99769 5.99052 7.34409C6.52633 6.08641 7.43603 5.16472 8.6939 4.60551L8.71827 4.59468L8.74361 4.58636C8.77379 4.5763 8.84536 4.54942 9.01635 4.47611C9.67981 4.21536 10.3398 4.08615 10.9928 4.08615C11.6251 4.08615 12.2745 4.21536 12.923 4.46972C14.1983 5.01346 15.1104 5.92548 15.6483 7.18664C15.9388 7.88415 16.358 8.87006 16.8975 10.1243C17.1975 9.39619 17.5965 8.41473 18.0874 7.1965C18.5122 6.20498 19.1755 5.42333 20.0639 4.86258C20.9196 4.34477 21.8351 4.08499 22.7934 4.08499C22.8303 4.08499 22.8671 4.08538 22.9042 4.08615C22.9412 4.08538 22.9781 4.08499 23.0151 4.08499C23.9723 4.08499 24.8967 4.3438 25.7629 4.85426C26.6655 5.4243 27.3289 6.20595 27.7487 7.18606C28.0319 7.86596 28.4392 8.8511 28.9713 10.1446C29.2723 9.41437 29.6696 8.43658 30.1567 7.22803C30.6963 5.93689 31.6204 5.01268 32.9059 4.47456C33.5475 4.20647 34.2003 4.07068 34.847 4.07068C35.4936 4.07068 36.1464 4.20647 36.7876 4.47437L36.8358 4.49448L36.8789 4.5235C36.8789 4.5233 36.8787 4.5233 36.8787 4.5233C36.8797 4.5233 36.9232 4.54536 37.0453 4.58037L37.0768 4.58946L37.107 4.60222C38.3689 5.14015 39.2817 6.06397 39.8195 7.34777C40.0976 7.9975 40.2394 8.67334 40.2394 9.35209C40.24 9.95655 40.1228 10.5813 39.8916 11.2088L39.8835 11.2293C38.6587 14.1633 36.8199 18.5955 34.4181 24.4029C33.9527 25.4719 33.2392 26.3252 32.2935 26.9474C31.3527 27.5904 30.2853 27.919 29.129 27.919H28.8125V27.9196Z" fill="white"/>
<path d="M34.8464 4.59712C35.4258 4.59712 36.0049 4.71821 36.5842 4.96019C36.6475 5.00294 36.7529 5.04452 36.9001 5.08669C38.038 5.57181 38.8481 6.39331 39.3332 7.55118C39.5859 8.14114 39.7124 8.74155 39.7124 9.3522C39.7129 9.9 39.6069 10.4577 39.3971 11.0265C38.1748 13.9545 36.3529 18.3461 33.9309 24.2016C33.5091 25.1707 32.8671 25.9394 32.0034 26.5077C31.1397 27.0978 30.1813 27.3924 29.1285 27.3924C29.0652 27.3924 28.9598 27.3924 28.8126 27.3924C27.7592 27.3924 26.8007 27.0976 25.9376 26.5077C25.0529 25.9394 24.4103 25.1707 24.0101 24.2016C23.8414 23.7592 23.5786 23.1173 23.2205 22.2741C23.1573 22.1476 23.0513 22.0847 22.9047 22.0847C22.7782 22.0847 22.6836 22.1474 22.6201 22.2741C22.4515 22.696 22.188 23.338 21.83 24.2016C21.4087 25.1707 20.7661 25.9394 19.903 26.5077C19.0388 27.0978 18.0805 27.3924 17.0275 27.3924C16.9648 27.3924 16.8588 27.3924 16.7116 27.3924C15.658 27.3924 14.7003 27.0976 13.8367 26.5077C12.9519 25.9394 12.3093 25.1707 11.9091 24.2016C10.7087 21.2743 8.88622 16.8826 6.4432 11.0267C6.21128 10.4372 6.09541 9.85802 6.09541 9.28915C6.09541 8.72027 6.22191 8.14153 6.47453 7.55137C6.95908 6.41401 7.77032 5.59251 8.90769 5.08688C8.97036 5.06638 9.07597 5.02363 9.22356 4.96038C9.81313 4.72885 10.4025 4.61317 10.9927 4.61317C11.5615 4.61317 12.1409 4.72885 12.7302 4.96038C13.8676 5.4455 14.6783 6.25617 15.1634 7.39353C15.4793 8.15178 15.9632 9.28915 16.6166 10.8056C16.6582 10.9321 16.7534 10.995 16.9012 10.995C17.0484 10.995 17.143 10.9323 17.1851 10.8056C17.501 10.0474 17.9645 8.91002 18.5755 7.39353C18.9546 6.50879 19.5436 5.81379 20.3446 5.30817C21.1123 4.84394 21.9284 4.61201 22.793 4.61201C22.83 4.61201 22.8667 4.6124 22.9039 4.61337C22.9408 4.61259 22.9778 4.61201 23.0145 4.61201C23.8797 4.61201 24.7068 4.84394 25.4949 5.30817C26.2947 5.81379 26.8849 6.50879 27.264 7.39353C27.5799 8.15178 28.0541 9.29998 28.6859 10.837C28.7275 10.9635 28.8226 11.0267 28.9704 11.0267C29.1176 11.0267 29.2122 10.9635 29.2544 10.837C29.5702 10.0787 30.0337 8.94136 30.6448 7.42487C31.1289 6.26681 31.9504 5.44531 33.1089 4.96038C33.688 4.71821 34.2671 4.59712 34.8464 4.59712ZM34.8464 3.5437C34.1298 3.5437 33.4085 3.69322 32.7025 3.9882C31.284 4.58223 30.2649 5.6016 29.6726 7.01847L29.6701 7.02466L29.6675 7.03085C29.4089 7.67285 29.1757 8.24907 28.9691 8.75721C28.6752 8.04501 28.4302 7.4533 28.2366 6.98811L28.2344 6.98308L28.2323 6.97824C27.7696 5.89852 27.0381 5.03698 26.0578 4.41723L26.0438 4.40853L26.0297 4.40021C25.0813 3.84139 24.067 3.55821 23.0145 3.55821C22.9776 3.55821 22.9406 3.5586 22.9037 3.55918C22.8667 3.5586 22.8298 3.55821 22.793 3.55821C21.7373 3.55821 20.7301 3.84352 19.7993 4.4064L19.7906 4.41162L19.7821 4.41704C18.802 5.03582 18.0703 5.89755 17.6072 6.97843L17.6027 6.98888L17.5985 6.99952C17.3339 7.65641 17.0958 8.24443 16.8857 8.7607C16.5793 8.04346 16.3284 7.45021 16.136 6.98811C15.5394 5.58961 14.534 4.58397 13.1436 3.99091L13.1295 3.98491L13.1152 3.97931C12.4053 3.70057 11.6909 3.55918 10.9925 3.55918C10.2731 3.55918 9.54833 3.70057 8.83844 3.97931L8.82355 3.98549L8.80865 3.99188C8.63766 4.06519 8.58679 4.08318 8.57847 4.08608L8.5276 4.10271L8.47982 4.12399C7.09622 4.73929 6.09541 5.75344 5.50545 7.1384C5.19809 7.85622 5.04199 8.58023 5.04199 9.28895C5.04199 9.9882 5.18358 10.7027 5.4629 11.4124L5.46676 11.4223L5.47083 11.4322C7.97845 17.4432 9.76535 21.7507 10.9339 24.6012C11.4149 25.7665 12.1952 26.7025 13.2544 27.3861C14.2891 28.0894 15.452 28.4459 16.7112 28.4459H17.0271C18.2881 28.4459 19.4529 28.0882 20.4891 27.3828C21.5189 26.7029 22.295 25.7738 22.7958 24.6214L22.7994 24.613L22.8029 24.6047C22.8445 24.5045 22.8845 24.4076 22.9234 24.314C22.9608 24.4088 22.9948 24.4962 23.0256 24.5767L23.0306 24.59L23.036 24.6034C23.5161 25.7659 24.2962 26.7019 25.355 27.3855C26.3891 28.089 27.5522 28.4457 28.8122 28.4457H29.1281C30.3892 28.4457 31.5537 28.088 32.5895 27.3826C33.6187 26.7034 34.3948 25.7746 34.8965 24.6217L34.9004 24.6129L34.9041 24.604C37.3061 18.7964 39.1446 14.3647 40.3689 11.4322L40.3774 11.4117L40.3851 11.391C40.6381 10.7049 40.7662 10.0186 40.7656 9.35085C40.7656 8.60112 40.6095 7.85583 40.3015 7.13627C39.7122 5.72907 38.7056 4.71086 37.3131 4.11722L37.2529 4.09169L37.19 4.0737C37.1597 4.06499 37.138 4.05803 37.1237 4.0532L37.0865 4.02805L36.9902 3.98782C36.2844 3.69322 35.5631 3.5437 34.8464 3.5437Z" fill="#FB0100"/>
<path d="M53.9003 31.1115C52.9707 29.9209 51.948 27.9133 50.4362 27.9133L49.94 29.0159C48.8452 29.0159 47.9283 29.5948 47.0639 30.2699C46.0383 31.0703 43.9679 31.5773 43.8089 32.8686C43.6499 34.1598 45.4211 36.0809 46.2217 37.1067C47.1513 38.2972 48.5516 38.98 50.0636 38.98C51.1584 38.98 52.194 38.6233 53.0585 37.9483C55.1754 36.2954 55.5529 33.2286 53.9003 31.1115Z" fill="#3B49F4"/>
<path d="M52.32 29.0046C51.3903 27.814 50.3677 25.8064 48.8558 25.8064L48.3597 26.9089C47.2649 26.9089 46.348 27.4879 45.4836 28.163C44.458 28.9634 42.3875 29.4703 42.2285 30.7617C42.0695 32.0528 43.8408 33.974 44.6414 34.9997C45.571 36.1903 46.9712 36.8731 48.4833 36.8731C49.5781 36.8731 50.6137 36.5164 51.4782 35.8413C53.5951 34.1885 53.9726 31.1217 52.32 29.0046Z" fill="#00D800"/>
<path d="M50.7399 26.8974C49.8103 25.7068 48.7876 23.6992 47.2758 23.6992L46.7796 24.8018C45.6848 24.8018 44.7679 25.3807 43.9035 26.0558C42.8779 26.8562 40.8075 27.3632 40.6485 28.6545C40.4895 29.9456 42.2607 31.8668 43.0613 32.8926C43.9909 34.0831 45.3912 34.7659 46.9032 34.7659C47.998 34.7659 49.0336 34.4092 49.8981 33.7342C52.0148 32.0813 52.3924 29.0145 50.7399 26.8974Z" fill="#F6CC06"/>
<path d="M49.1596 24.7903C48.2299 23.5998 47.2073 21.5922 45.6954 21.5922L45.1993 22.6947C44.1045 22.6947 43.1876 23.2736 42.3232 23.9487C41.2976 24.7491 39.2271 25.2561 39.0681 26.5474C38.9091 27.8386 40.6804 29.7597 41.481 30.7855C42.4106 31.9761 43.8108 32.6589 45.3229 32.6589C46.4177 32.6589 47.4533 32.3022 48.3178 31.6271C50.4347 29.9744 50.8122 26.9074 49.1596 24.7903Z" fill="#F98F00"/>
<path d="M47.5792 22.6833C46.6496 21.4927 45.627 19.4851 44.1151 19.4851L43.619 20.5877C42.5241 20.5877 41.6073 21.1666 40.7429 21.8417C39.7173 22.6421 37.6468 23.1491 37.4878 24.4404C37.3288 25.7315 39.1001 27.6527 39.9007 28.6784C40.8303 29.869 42.2305 30.5518 43.7426 30.5518C44.8374 30.5518 45.873 30.1951 46.7374 29.5201C48.8543 27.8674 49.2319 24.8004 47.5792 22.6833Z" fill="#FB0100"/>
<path d="M42.1628 27.9181C40.814 27.9181 39.5651 27.3093 38.7362 26.2474C37.2623 24.359 37.5992 21.6239 39.4871 20.1501C40.2581 19.5482 41.1816 19.23 42.1578 19.23C43.5062 19.23 44.7552 19.8387 45.5842 20.9006C47.0581 22.7889 46.7214 25.524 44.8337 26.9979C44.0625 27.5999 43.1389 27.9181 42.1628 27.9181Z" fill="white"/>
<path d="M42.1575 19.7564C43.2925 19.7564 44.416 20.2605 45.1686 21.2246C46.4659 22.8867 46.1708 25.2852 44.5092 26.5826C43.8117 27.1273 42.984 27.3911 42.1625 27.3911C41.0273 27.3911 39.9038 26.887 39.151 25.923C37.8537 24.2608 38.1489 21.8623 39.811 20.565C40.5087 20.0205 41.3362 19.7566 42.1575 19.7564ZM42.1577 18.703C41.0629 18.703 40.0273 19.0597 39.1628 19.7348C37.0459 21.3872 36.668 24.4543 38.3206 26.5715C39.2502 27.7621 40.6505 28.4449 42.1625 28.4449C43.2573 28.4449 44.293 28.0882 45.1574 27.4131C47.2741 25.7605 47.6515 22.6937 45.999 20.5764C45.0696 19.3858 43.6693 18.703 42.1577 18.703Z" fill="#FB0100"/>
<path d="M78.2944 19.5779C77.3708 17.9832 76.0415 15.8865 74.5322 14.9344C73.6838 14.4162 72.8755 14.8224 71.929 14.5452C70.9729 14.2655 69.9698 14.1235 68.9473 14.1235H65.5984C64.5769 14.1235 63.574 14.2653 62.6171 14.545C61.6689 14.823 60.7654 15.2222 59.9309 15.7317C58.409 16.6919 57.1753 17.983 56.2511 19.5779C55.3182 21.1878 54.8453 22.9706 54.8453 24.8769L54.3809 33.3708C54.3809 34.8973 55.3956 36.2573 56.4809 37.3427C57.5666 38.4278 58.8909 38.9779 60.4168 38.9779H62.9693C65.0601 38.9779 66.7493 37.4094 66.9461 35.3697L66.8045 35.2557C67.0014 37.2955 69.486 38.9779 71.577 38.9779H74.1289C75.6552 38.9779 76.9795 38.4278 78.065 37.3428C79.1503 36.2569 79.7004 34.9325 79.7004 33.4064V24.8769C79.7004 22.9697 79.2273 21.1868 78.2944 19.5779Z" fill="#3B49F4"/>
<path d="M76.7143 17.4708C75.7907 15.8762 74.4614 13.7794 72.9521 12.8273C72.1037 12.3091 71.2954 12.7153 70.3489 12.4382C69.3928 12.1585 68.3897 12.0165 67.3672 12.0165H64.0184C62.9969 12.0165 61.9939 12.1583 61.037 12.438C60.0888 12.7159 59.1853 13.1152 58.3509 13.6247C56.829 14.5848 55.5953 15.876 54.6711 17.4708C53.7381 19.0807 53.2652 20.8636 53.2652 22.7698L52.8008 31.2637C52.8008 32.7903 53.8155 34.1503 54.9008 35.2356C55.9866 36.3207 57.3108 36.8709 58.8368 36.8709H61.3893C63.48 36.8709 65.1693 35.3023 65.366 33.2626L65.2244 33.1487C65.4213 35.1884 67.9059 36.8709 69.9969 36.8709H72.5488C74.0752 36.8709 75.3994 36.3207 76.4849 35.2358C77.5702 34.1499 78.1204 32.8255 78.1204 31.2993V22.7698C78.1202 20.8626 77.6472 19.0798 76.7143 17.4708Z" fill="#00D800"/>
<path d="M75.134 15.3638C74.2103 13.7691 72.8811 11.6723 71.3717 10.7203C70.5234 10.2021 69.715 10.6083 68.7686 10.3311C67.8124 10.0514 66.8093 9.90942 65.7868 9.90942H62.438C61.4165 9.90942 60.4136 10.0512 59.4567 10.3309C58.5085 10.6089 57.605 11.0081 56.7705 11.5176C55.2486 12.4778 54.0149 13.7689 53.0907 15.3638C52.1578 16.9737 51.6846 18.7565 51.6846 20.6628L51.2202 29.1567C51.2202 30.6832 52.2349 32.0432 53.3203 33.1285C54.406 34.2137 55.7302 34.7638 57.256 34.7638H59.8085C61.8993 34.7638 63.5885 33.1953 63.7852 31.1556L63.6436 31.0416C63.8405 33.0813 66.3253 34.7638 68.4161 34.7638H70.9681C72.4944 34.7638 73.8186 34.2137 74.9042 33.1287C75.9895 32.0428 76.5396 30.7184 76.5396 29.1922V20.6628C76.54 18.7557 76.0669 16.9727 75.134 15.3638Z" fill="#F6CC06"/>
<path d="M73.5537 13.2568C72.63 11.6621 71.2459 10.0886 69.7365 9.1367C68.8881 8.6185 68.1349 8.50147 67.1883 8.22429C66.2322 7.94459 65.229 7.80261 64.2066 7.80261H60.8577C59.8362 7.80261 58.8333 7.9444 57.8764 8.2241C56.9282 8.50205 56.0247 8.90129 55.1902 9.41079C53.6683 10.371 52.4346 11.6621 51.5104 13.2569C50.5775 14.8669 50.1044 16.6497 50.1044 18.556L49.6401 27.0498C49.6401 28.5764 50.6549 29.9364 51.7402 31.0217C52.8259 32.1069 54.1501 32.657 55.6761 32.657H58.2286C60.3194 32.657 62.0086 31.0885 62.2053 29.0487L62.0637 28.9348C62.2607 30.9745 64.7453 32.657 66.8362 32.657H69.3882C70.9145 32.657 72.2387 32.1069 73.3243 31.0219C74.4096 29.936 74.9597 28.6116 74.9597 27.0854V18.5558C74.9597 16.6487 74.4866 14.8657 73.5537 13.2568Z" fill="#F98F00"/>
<path d="M71.9738 11.1498C71.0502 9.55513 69.7209 7.45835 68.2116 6.50629C67.3632 5.98809 66.5549 6.3943 65.6084 6.11711C64.6523 5.83741 63.6491 5.69543 62.6267 5.69543H59.2778C58.2563 5.69543 57.2534 5.83722 56.2965 6.11692C55.3483 6.39488 54.4448 6.79412 53.6103 7.30361C52.0884 8.2638 50.8547 9.55494 49.9305 11.1498C48.9976 12.7597 48.5245 14.5425 48.5245 16.4488L48.0601 24.9427C48.0601 26.4692 49.0748 27.8292 50.1601 28.9146C51.2458 29.9997 52.5701 30.5498 54.0958 30.5498H56.6483C58.7391 30.5498 60.4632 28.9496 60.6601 26.9098C60.857 28.9496 63.1652 30.5498 65.256 30.5498H67.8079C69.3342 30.5498 70.6585 29.9997 71.744 28.9147C72.8293 27.8288 73.3794 26.5044 73.3794 24.9783V16.4488C73.3798 14.5418 72.9069 12.7587 71.9738 11.1498Z" fill="#FB0100"/>
<path d="M63.6757 27.916C61.7439 27.916 60.1721 26.3446 60.1721 24.413C60.1721 24.3945 60.1721 24.3784 60.1375 24.344L60.1226 24.3293L60.109 24.3134C60.0787 24.2778 60.0645 24.2765 60.0353 24.2765C60.0353 24.2765 58.6769 24.2763 58.6767 24.2763C58.6749 24.2763 58.6598 24.284 58.6337 24.3142L58.6206 24.3297L58.6061 24.344C58.572 24.378 58.572 24.3943 58.572 24.413C58.572 26.3446 57.0002 27.916 55.0682 27.916H52.5155C51.1345 27.916 49.9356 27.4178 48.9524 26.4351C47.9692 25.4521 47.4707 24.2531 47.4707 22.8712V14.3417C47.4707 12.5295 47.9198 10.8356 48.8056 9.30713C49.6868 7.78678 50.8617 6.55637 52.2977 5.65054C53.0991 5.16116 53.9601 4.78068 54.8632 4.51588C55.7725 4.25011 56.7259 4.11548 57.6971 4.11548H61.0458C62.018 4.11548 62.9716 4.25011 63.8794 4.51588C64.7817 4.7801 65.6427 5.16058 66.4384 5.64648C67.8814 6.55637 69.0563 7.78658 69.9372 9.30733C70.8229 10.8346 71.2721 12.5287 71.2721 14.3419V22.8712C71.2721 24.2529 70.7738 25.4518 69.7912 26.435C68.8078 27.4178 67.6089 27.916 66.2272 27.916H63.6757V27.916ZM59.3717 14.6793C59.1539 14.6793 58.9811 14.7504 58.8283 14.9036C58.6745 15.0574 58.6032 15.2301 58.6032 15.4476V18.0066C58.6032 18.0674 58.6185 18.0879 58.6388 18.1078C58.6736 18.1428 58.6896 18.1428 58.708 18.1428H60.0665C60.1282 18.1428 60.1489 18.1273 60.1692 18.107C60.1881 18.0879 60.2032 18.068 60.2032 18.0064V15.4474C60.2032 15.2332 60.134 15.0622 59.9854 14.9108C59.8121 14.7528 59.6369 14.6791 59.4347 14.6791H59.3717V14.6793Z" fill="white"/>
<path d="M61.0461 4.64192C61.9736 4.64192 62.8686 4.76842 63.7319 5.02104C64.5961 5.27405 65.4062 5.63267 66.1644 6.09554C67.5337 6.95921 68.6398 8.11727 69.482 9.5709C70.3245 11.0241 70.7458 12.6147 70.7458 14.3417C70.7458 16.1955 70.7458 19.1857 70.7458 22.8711C70.7458 24.1145 70.3034 25.1778 69.4191 26.0625C68.5343 26.9469 67.4711 27.3893 66.2277 27.3893H63.6758C62.0318 27.3893 60.6989 26.0569 60.6989 24.413C60.6989 24.2443 60.6356 24.0967 60.5091 23.9706C60.383 23.8234 60.2252 23.7493 60.0354 23.7493C59.7401 23.7493 59.2874 23.7493 58.6768 23.7493C58.5081 23.7493 58.3609 23.8234 58.2344 23.9706C58.1079 24.0967 58.045 24.2443 58.045 24.413C58.045 26.0571 56.7121 27.3893 55.0681 27.3893H52.5156C51.2734 27.3893 50.2096 26.9469 49.3248 26.0625C48.4401 25.1778 47.9977 24.1145 47.9977 22.8711C47.9977 21.0183 47.9977 18.0278 47.9977 14.3417C47.9977 12.6147 48.4196 11.0241 49.2616 9.5709C50.1042 8.11727 51.2102 6.95921 52.5791 6.09554C53.3373 5.63267 54.1486 5.27405 55.0117 5.02104C55.8759 4.76842 56.7709 4.64192 57.6974 4.64192C58.435 4.64192 59.5507 4.64192 61.0461 4.64192ZM58.7081 18.67C59.0035 18.67 59.4561 18.67 60.0666 18.67C60.2563 18.67 60.4144 18.6068 60.5409 18.4807C60.6674 18.3542 60.7302 18.1961 60.7302 18.007C60.7302 17.4381 60.7302 16.585 60.7302 15.4477C60.7302 15.0896 60.6037 14.784 60.3511 14.5316C60.078 14.2786 59.7718 14.1525 59.435 14.1525C59.4145 14.1525 59.3934 14.1525 59.3718 14.1525C59.0137 14.1525 58.7081 14.2786 58.4557 14.5316C58.2031 14.7842 58.0766 15.0896 58.0766 15.4477C58.0766 16.0162 58.0766 16.8696 58.0766 18.007C58.0766 18.1963 58.1398 18.3542 58.2663 18.4807C58.3922 18.6072 58.5398 18.67 58.7081 18.67ZM61.0461 3.5885H57.6972C56.6759 3.5885 55.6728 3.73028 54.7159 4.00998C53.7677 4.28794 52.8642 4.68718 52.0297 5.19668L52.0232 5.20074L52.0166 5.2048C50.5078 6.15667 49.2743 7.44801 48.3499 9.04283C47.417 10.6528 46.9441 12.4356 46.9441 14.3418V22.8711C46.9441 24.3977 47.4944 25.7221 48.5799 26.8074C49.6656 27.8926 50.9899 28.4427 52.5156 28.4427H55.0681C57.1589 28.4427 58.883 26.8424 59.0799 24.8027H59.664C59.8609 26.8424 61.585 28.4427 63.6758 28.4427H66.2277C67.754 28.4427 69.0783 27.8926 70.1638 26.8076C71.2491 25.7217 71.7992 24.3975 71.7992 22.8711V14.3417C71.7992 12.4344 71.3261 10.6516 70.3932 9.04245C69.4696 7.44781 68.2357 6.15647 66.7264 5.20441L66.7198 5.20035L66.7132 5.19629C65.8778 4.68621 64.9741 4.28698 64.0276 4.00979C63.0717 3.73028 62.0686 3.5885 61.0461 3.5885ZM59.13 17.6164V15.4477C59.13 15.3695 59.1458 15.3312 59.2006 15.2765C59.2561 15.221 59.2926 15.2059 59.3718 15.2059H59.435C59.4683 15.2059 59.523 15.2059 59.6194 15.29C59.6636 15.338 59.6768 15.3763 59.6768 15.4477V17.6164H59.13Z" fill="#FB0100"/>
<path d="M89.6735 15.2039C88.6874 13.9785 88.4679 13.3663 86.9417 13.3663L85.1888 14.1236C83.6627 14.1236 82.3385 14.6739 81.2529 15.7594C80.1676 16.8448 79.6173 18.169 79.6173 19.6952L79.0906 33.383C79.0906 34.91 80.1678 36.2584 81.2533 37.3433C82.3385 38.4285 83.6627 38.9788 85.1888 38.9788H86.0736C87.5997 38.9788 88.924 38.4284 90.0095 37.3431C91.0948 36.2584 91.6451 34.9341 91.6451 33.4072V27.3093V19.6954C91.6451 18.169 90.6358 16.3999 89.6735 15.2039Z" fill="#3B49F4"/>
<path d="M88.0932 13.0969C87.1071 11.8715 86.8875 11.2593 85.3614 11.2593L83.6085 12.0166C82.0824 12.0166 80.7581 12.5669 79.6726 13.6524C78.5873 14.7377 78.037 16.0619 78.037 17.5883L77.5103 31.2762C77.5103 32.8031 78.5875 34.1515 79.673 35.2364C80.7581 36.3216 82.0824 36.8719 83.6087 36.8719H84.4935C86.0196 36.8719 87.3438 36.3216 88.4294 35.2363C89.5147 34.1515 90.065 32.8273 90.065 31.3003V25.2025V17.5883C90.0648 16.0621 89.0555 14.2928 88.0932 13.0969Z" fill="#00D800"/>
<path d="M86.5131 10.9897C85.527 9.7643 85.3076 9.1521 83.7813 9.1521L82.0282 9.90938C80.502 9.90938 79.1778 10.4597 78.0923 11.5452C77.007 12.6305 76.4566 13.9548 76.4566 15.4809L75.9299 29.1688C75.9299 30.6957 77.0071 32.0441 78.0927 33.1291C79.1778 34.2142 80.502 34.7645 82.0282 34.7645H82.913C84.4391 34.7645 85.7633 34.2142 86.8489 33.1289C87.9342 32.0441 88.4845 30.7199 88.4845 29.193V23.0955V15.4811C88.4847 13.955 87.4756 12.1857 86.5131 10.9897Z" fill="#F6CC06"/>
<path d="M84.9325 8.88263C83.9464 7.65725 83.7268 7.04504 82.2007 7.04504L80.4476 7.80232C78.9215 7.80232 77.5972 8.35263 76.5117 9.43816C75.4264 10.5235 74.8761 11.8477 74.8761 13.3741L74.3494 27.0619C74.3494 28.5889 75.4266 29.9373 76.5121 31.0222C77.5972 32.1074 78.9215 32.6577 80.4476 32.6577H81.3324C82.8585 32.6577 84.1828 32.1074 85.2683 31.022C86.3536 29.9373 86.9039 28.613 86.9039 27.0861V20.9884V13.3741C86.9039 11.8479 85.8948 10.0786 84.9325 8.88263Z" fill="#F98F00"/>
<path d="M83.3527 6.77594C82.3666 5.55056 82.1471 4.93835 80.6209 4.93835L78.868 5.69563C77.3419 5.69563 76.0177 6.24594 74.9321 7.33147C73.8468 8.4168 73.2965 9.74102 73.2965 11.2672L72.7698 24.9551C72.7698 26.482 73.847 27.8304 74.9325 28.9153C76.0177 30.0005 77.3419 30.5508 78.868 30.5508H79.7528C81.2789 30.5508 82.6032 30.0005 83.6887 28.9151C84.774 27.8304 85.3243 26.5062 85.3243 24.9792V18.8815V11.2672C85.3243 9.74102 84.315 7.97172 83.3527 6.77594Z" fill="#FB0100"/>
<path d="M77.2875 27.9172C75.906 27.9172 74.7072 27.4187 73.7242 26.4357C72.7411 25.4532 72.2427 24.2544 72.2427 22.8723V9.16008C72.2427 7.7786 72.7411 6.57972 73.7242 5.59671C74.7072 4.6137 75.906 4.11523 77.2875 4.11523H78.1723C79.5537 4.11523 80.7526 4.6137 81.7356 5.59671C82.7186 6.57972 83.2171 7.7786 83.2171 9.16008V22.8723C83.2171 24.2544 82.7186 25.4532 81.7354 26.4357C80.7526 27.4187 79.5537 27.9172 78.1723 27.9172H77.2875Z" fill="white"/>
<path d="M78.1721 4.64192C79.4149 4.64192 80.4782 5.08429 81.3629 5.96904C82.2477 6.85379 82.6901 7.91765 82.6901 9.15986C82.6901 10.8661 82.6901 13.4047 82.6901 16.7742C82.6901 18.1224 82.6901 20.155 82.6901 22.8721C82.6901 24.1149 82.2477 25.1787 81.3629 26.0629C80.4782 26.9477 79.4143 27.39 78.1721 27.39C77.9824 27.39 77.6876 27.39 77.2874 27.39C76.0446 27.39 74.9813 26.9477 74.0966 26.0629C73.2118 25.1786 72.7694 24.1149 72.7694 22.8721C72.7694 19.818 72.7694 15.2475 72.7694 9.16005C72.7694 7.91765 73.2118 6.85398 74.0966 5.96924C74.9813 5.08449 76.0446 4.64211 77.2874 4.64211C77.4976 4.64192 77.793 4.64192 78.1721 4.64192ZM78.1721 3.5885H77.2874C75.7612 3.5885 74.437 4.13881 73.3515 5.22434C72.2661 6.30986 71.7158 7.63409 71.7158 9.16025V22.8723C71.7158 24.3992 72.2663 25.7234 73.3519 26.8084C74.437 27.8935 75.7612 28.444 77.2874 28.444H78.1721C79.6983 28.444 81.0225 27.8937 82.108 26.8082C83.1934 25.7234 83.7437 24.3992 83.7437 22.8723V16.7744V9.16005C83.7437 7.63389 83.1934 6.30967 82.108 5.22414C81.0225 4.13881 79.6983 3.5885 78.1721 3.5885Z" fill="#FB0100"/>
</g>
<defs>
<clipPath id="clip0_1_95">
<rect width="86.6032" height="35.4375" fill="white" transform="translate(5.04199 3.5437)"/>
</clipPath>
</defs>
</svg>
